Units are S.I. units (second, meters, Newtons, ...)
Angles are in degrees.
name walk
datarows 70
datacolumns 15
range 2.500000 3.612903
endheader
time exo_pelvis_tx exo_pelvis_ty exo_pelvis_tz exo_pelvis_tilt exo_pelvis_list exo_pelvis_rotation exo_hip_r exo_hip_l exo_knee_r exo_knee_l r_ankle_coupling l_ankle_coupling r_foot l_foot
2.500000	-0.070262	0.934901	0.000000	0.000000	0.000000	0.000000	7.027170	39.683080	-18.263890	-50.715110	10.935560	10.031340	0.000000	0.000000
2.516129	-0.069424	0.934963	0.000000	0.000000	0.000000	0.000000	6.882930	39.708894	-18.093435	-50.918483	10.919023	10.241179	0.000000	0.000000
2.532258	-0.068586	0.935026	0.000000	0.000000	0.000000	0.000000	6.738689	39.734708	-17.922980	-51.121855	10.902486	10.451018	0.000000	0.000000
2.548387	-0.067748	0.935088	0.000000	0.000000	0.000000	0.000000	6.594449	39.760522	-17.752525	-51.325228	10.885950	10.660857	0.000000	0.000000
2.564516	-0.066910	0.935151	0.000000	0.000000	0.000000	0.000000	6.450209	39.786335	-17.582071	-51.528600	10.869413	10.870696	0.000000	0.000000
2.580645	-0.066072	0.935213	0.000000	0.000000	0.000000	0.000000	6.305968	39.812149	-17.411616	-51.731973	10.852876	11.080535	0.000000	0.000000
2.596774	-0.065234	0.935276	0.000000	0.000000	0.000000	0.000000	6.161728	39.837963	-17.241161	-51.935345	10.836340	11.290374	0.000000	0.000000
2.612903	-0.064396	0.935338	0.000000	0.000000	0.000000	0.000000	6.017488	39.863777	-17.070706	-52.138718	10.819803	11.500213	0.000000	0.000000
2.629032	-0.063558	0.935401	0.000000	0.000000	0.000000	0.000000	5.873247	39.889591	-16.900251	-52.342091	10.803266	11.710052	0.000000	0.000000
2.645161	-0.062720	0.935463	0.000000	0.000000	0.000000	0.000000	5.729007	39.915405	-16.729796	-52.545463	10.786730	11.919891	0.000000	0.000000
2.661290	-0.061882	0.935526	0.000000	0.000000	0.000000	0.000000	5.584767	39.941219	-16.559342	-52.748836	10.770193	12.129730	0.000000	0.000000
2.677419	-0.061044	0.935588	0.000000	0.000000	0.000000	0.000000	5.440526	39.967033	-16.388887	-52.952208	10.753656	12.339569	0.000000	0.000000
2.693548	-0.060206	0.935651	0.000000	0.000000	0.000000	0.000000	5.296286	39.992846	-16.218432	-53.155581	10.737120	12.549408	0.000000	0.000000
2.709677	-0.059368	0.935713	0.000000	0.000000	0.000000	0.000000	5.152046	40.018660	-16.047977	-53.358954	10.720583	12.759247	0.000000	0.000000
2.725806	-0.058530	0.935776	0.000000	0.000000	0.000000	0.000000	5.007805	40.044474	-15.877522	-53.562326	10.704046	12.969086	0.000000	0.000000
2.741935	-0.057692	0.935838	0.000000	0.000000	0.000000	0.000000	4.863565	40.070288	-15.707067	-53.765699	10.687510	13.178925	0.000000	0.000000
2.758065	-0.056854	0.935901	0.000000	0.000000	0.000000	0.000000	4.719325	40.096102	-15.536613	-53.969071	10.670973	13.388765	0.000000	0.000000
2.774194	-0.056016	0.935963	0.000000	0.000000	0.000000	0.000000	4.575085	40.121916	-15.366158	-54.172444	10.654436	13.598604	0.000000	0.000000
2.790323	-0.055178	0.936026	0.000000	0.000000	0.000000	0.000000	4.430844	40.147730	-15.195703	-54.375816	10.637900	13.808443	0.000000	0.000000
2.806452	-0.054340	0.936088	0.000000	0.000000	0.000000	0.000000	4.286604	40.173544	-15.025248	-54.579189	10.621363	14.018282	0.000000	0.000000
2.822581	-0.053502	0.936151	0.000000	0.000000	0.000000	0.000000	4.142364	40.199357	-14.854793	-54.782562	10.604826	14.228121	0.000000	0.000000
2.838710	-0.052664	0.936213	0.000000	0.000000	0.000000	0.000000	3.998123	40.225171	-14.684338	-54.985934	10.588290	14.437960	0.000000	0.000000
2.854839	-0.051826	0.936276	0.000000	0.000000	0.000000	0.000000	3.853883	40.250985	-14.513884	-55.189307	10.571753	14.647799	0.000000	0.000000
2.870968	-0.050988	0.936338	0.000000	0.000000	0.000000	0.000000	3.709643	40.276799	-14.343429	-55.392679	10.555216	14.857638	0.000000	0.000000
2.887097	-0.050151	0.936401	0.000000	0.000000	0.000000	0.000000	3.565402	40.302613	-14.172974	-55.596052	10.538680	15.067477	0.000000	0.000000
2.903226	-0.049313	0.936463	0.000000	0.000000	0.000000	0.000000	3.421162	40.328427	-14.002519	-55.799425	10.522143	15.277316	0.000000	0.000000
2.919355	-0.048475	0.936526	0.000000	0.000000	0.000000	0.000000	3.276922	40.354241	-13.832064	-56.002797	10.505606	15.487155	0.000000	0.000000
2.935484	-0.047637	0.936588	0.000000	0.000000	0.000000	0.000000	3.132681	40.380055	-13.661609	-56.206170	10.489070	15.696994	0.000000	0.000000
2.951613	-0.046799	0.936651	0.000000	0.000000	0.000000	0.000000	2.988441	40.405868	-13.491155	-56.409542	10.472533	15.906833	0.000000	0.000000
2.967742	-0.045961	0.936713	0.000000	0.000000	0.000000	0.000000	2.844201	40.431682	-13.320700	-56.612915	10.455996	16.116672	0.000000	0.000000
2.983871	-0.045123	0.936776	0.000000	0.000000	0.000000	0.000000	2.699960	40.457496	-13.150245	-56.816287	10.439460	16.326511	0.000000	0.000000
3.000000	-0.044285	0.936838	0.000000	0.000000	0.000000	0.000000	2.555720	40.483310	-12.979790	-57.019660	10.422923	16.536350	0.000000	0.000000
3.016129	-0.042267	0.936898	0.000000	0.000000	0.000000	0.000000	2.292126	40.151671	-12.744819	-56.364711	10.451548	16.213003	0.000000	0.000000
3.032258	-0.040248	0.936957	0.000000	0.000000	0.000000	0.000000	2.028532	39.820031	-12.509848	-55.709761	10.480172	15.889656	0.000000	0.000000
3.048387	-0.038230	0.937017	0.000000	0.000000	0.000000	0.000000	1.764937	39.488392	-12.274877	-55.054812	10.508797	15.566309	0.000000	0.000000
3.064516	-0.036212	0.937076	0.000000	0.000000	0.000000	0.000000	1.501343	39.156753	-12.039906	-54.399863	10.537422	15.242962	0.000000	0.000000
3.080645	-0.034194	0.937136	0.000000	0.000000	0.000000	0.000000	1.237749	38.825113	-11.804935	-53.744913	10.566046	14.919615	0.000000	0.000000
3.096774	-0.032176	0.937195	0.000000	0.000000	0.000000	0.000000	0.974155	38.493474	-11.569964	-53.089964	10.594671	14.596267	0.000000	0.000000
3.112903	-0.030158	0.937255	0.000000	0.000000	0.000000	0.000000	0.710561	38.161835	-11.334993	-52.435015	10.623295	14.272920	0.000000	0.000000
3.129032	-0.028140	0.937314	0.000000	0.000000	0.000000	0.000000	0.446966	37.830195	-11.100022	-51.780065	10.651920	13.949573	0.000000	0.000000
3.145161	-0.026122	0.937374	0.000000	0.000000	0.000000	0.000000	0.183372	37.498556	-10.865051	-51.125116	10.680545	13.626226	0.000000	0.000000
3.161290	-0.024104	0.937433	0.000000	0.000000	0.000000	0.000000	-0.080222	37.166916	-10.630080	-50.470166	10.709169	13.302879	0.000000	0.000000
3.177419	-0.022086	0.937493	0.000000	0.000000	0.000000	0.000000	-0.343816	36.835277	-10.395109	-49.815217	10.737794	12.979532	0.000000	0.000000
3.193548	-0.020068	0.937552	0.000000	0.000000	0.000000	0.000000	-0.607410	36.503638	-10.160138	-49.160268	10.766419	12.656185	0.000000	0.000000
3.209677	-0.018050	0.937612	0.000000	0.000000	0.000000	0.000000	-0.871005	36.171998	-9.925167	-48.505318	10.795043	12.332838	0.000000	0.000000
3.225806	-0.016031	0.937671	0.000000	0.000000	0.000000	0.000000	-1.134599	35.840359	-9.690196	-47.850369	10.823668	12.009491	0.000000	0.000000
3.241935	-0.014013	0.937731	0.000000	0.000000	0.000000	0.000000	-1.398193	35.508720	-9.455225	-47.195420	10.852292	11.686144	0.000000	0.000000
3.258065	-0.011995	0.937790	0.000000	0.000000	0.000000	0.000000	-1.661787	35.177080	-9.220255	-46.540470	10.880917	11.362796	0.000000	0.000000
3.274194	-0.009977	0.937849	0.000000	0.000000	0.000000	0.000000	-1.925381	34.845441	-8.985284	-45.885521	10.909542	11.039449	0.000000	0.000000
3.290323	-0.007959	0.937909	0.000000	0.000000	0.000000	0.000000	-2.188975	34.513802	-8.750313	-45.230572	10.938166	10.716102	0.000000	0.000000
3.306452	-0.005941	0.937968	0.000000	0.000000	0.000000	0.000000	-2.452570	34.182162	-8.515342	-44.575622	10.966791	10.392755	0.000000	0.000000
3.322581	-0.003923	0.938028	0.000000	0.000000	0.000000	0.000000	-2.716164	33.850523	-8.280371	-43.920673	10.995416	10.069408	0.000000	0.000000
3.338710	-0.001905	0.938087	0.000000	0.000000	0.000000	0.000000	-2.979758	33.518884	-8.045400	-43.265724	11.024040	9.746061	0.000000	0.000000
3.354839	0.000113	0.938147	0.000000	0.000000	0.000000	0.000000	-3.243352	33.187244	-7.810429	-42.610774	11.052665	9.422714	0.000000	0.000000
3.370968	0.002131	0.938206	0.000000	0.000000	0.000000	0.000000	-3.506946	32.855605	-7.575458	-41.955825	11.081289	9.099367	0.000000	0.000000
3.387097	0.004149	0.938266	0.000000	0.000000	0.000000	0.000000	-3.770541	32.523965	-7.340487	-41.300875	11.109914	8.776020	0.000000	0.000000
3.403226	0.006167	0.938325	0.000000	0.000000	0.000000	0.000000	-4.034135	32.192326	-7.105516	-40.645926	11.138539	8.452673	0.000000	0.000000
3.419355	0.008185	0.938385	0.000000	0.000000	0.000000	0.000000	-4.297729	31.860687	-6.870545	-39.990977	11.167163	8.129325	0.000000	0.000000
3.435484	0.010204	0.938444	0.000000	0.000000	0.000000	0.000000	-4.561323	31.529047	-6.635574	-39.336027	11.195788	7.805978	0.000000	0.000000
3.451613	0.012222	0.938504	0.000000	0.000000	0.000000	0.000000	-4.824917	31.197408	-6.400603	-38.681078	11.224413	7.482631	0.000000	0.000000
3.467742	0.014240	0.938563	0.000000	0.000000	0.000000	0.000000	-5.088512	30.865769	-6.165632	-38.026129	11.253037	7.159284	0.000000	0.000000
3.483871	0.016258	0.938623	0.000000	0.000000	0.000000	0.000000	-5.352106	30.534129	-5.930661	-37.371179	11.281662	6.835937	0.000000	0.000000
3.500000	0.018276	0.938682	0.000000	0.000000	0.000000	0.000000	-5.615700	30.202490	-5.695690	-36.716230	11.310287	6.512590	0.000000	0.000000
3.516129	0.020598	0.938221	0.000000	0.000000	0.000000	0.000000	-5.879297	29.934624	-5.525235	-36.291448	11.403427	6.363215	0.000000	0.000000
3.532258	0.022920	0.937759	0.000000	0.000000	0.000000	0.000000	-6.142894	29.666758	-5.354780	-35.866666	11.496568	6.213840	0.000000	0.000000
3.548387	0.025242	0.937297	0.000000	0.000000	0.000000	0.000000	-6.406491	29.398892	-5.184326	-35.441884	11.589709	6.064465	0.000000	0.000000
3.564516	0.027564	0.936836	0.000000	0.000000	0.000000	0.000000	-6.670088	29.131025	-5.013871	-35.017102	11.682850	5.915089	0.000000	0.000000
3.580645	0.029886	0.936374	0.000000	0.000000	0.000000	0.000000	-6.933685	28.863159	-4.843416	-34.592320	11.775990	5.765714	0.000000	0.000000
3.596774	0.032208	0.935913	0.000000	0.000000	0.000000	0.000000	-7.197283	28.595293	-4.672961	-34.167538	11.869131	5.616339	0.000000	0.000000
3.612903	0.034530	0.935451	0.000000	0.000000	0.000000	0.000000	-7.460880	28.327427	-4.502506	-33.742756	11.962272	5.466964	0.000000	0.000000
